<?xml version="1.0" standalone="no"?>
<!DOCTYPE svg PUBLIC "-//W3C//DTD SVG 20010904//EN"
 "http://www.w3.org/TR/2001/REC-SVG-20010904/DTD/svg10.dtd">
<svg version="1.0" xmlns="http://www.w3.org/2000/svg"
 width="982.000000pt" height="630.000000pt" viewBox="0 0 982.000000 630.000000"
 preserveAspectRatio="xMidYMid meet">
<metadata>
Created by potrace 1.15, written by Peter Selinger 2001-2017
</metadata>
<g transform="translate(0.000000,630.000000) scale(0.100000,-0.100000)"
fill="#000000" stroke="none">
<path d="M2464 6280 c-129 -17 -274 -102 -364 -213 -90 -111 -119 -201 -139
-431 -6 -65 -13 -121 -16 -125 -4 -3 -158 -9 -343 -12 -194 -4 -358 -12 -387
-18 -132 -31 -301 -173 -369 -312 -37 -75 -38 -79 -46 -235 -5 -87 -9 -338
-10 -556 0 -232 -4 -407 -10 -422 l-10 -26 -147 -1 c-221 0 -351 -12 -398 -37
-59 -30 -120 -86 -170 -157 l-45 -63 0 -519 0 -520 41 -59 c57 -83 85 -111
152 -155 70 -46 93 -49 375 -58 l207 -6 5 -545 c5 -539 5 -546 28 -610 64
-177 191 -307 360 -366 97 -33 216 -44 515 -44 141 0 257 -3 257 -7 0 -47 24
-245 36 -303 39 -183 150 -328 314 -409 47 -23 112 -46 145 -51 76 -12 719
-13 803 0 123 17 273 111 358 223 26 34 64 99 85 143 l38 82 7 946 7 946 1167
0 1167 0 7 -946 7 -946 38 -81 c21 -45 58 -109 83 -143 82 -110 237 -207 360
-224 84 -13 727 -12 803 0 81 13 211 79 281 143 135 122 181 245 209 558 l6
67 322 5 c245 4 337 9 383 21 181 46 313 150 392 311 57 114 55 101 61 685 l6
545 214 7 c118 3 235 9 260 13 90 14 172 75 252 188 l49 70 0 520 0 519 -45
63 c-50 71 -111 127 -170 157 -47 25 -177 37 -398 37 l-147 1 -10 26 c-6 15
-10 190 -10 422 -1 218 -5 469 -10 556 -8 156 -9 160 -46 235 -69 140 -236
281 -369 311 -29 7 -195 15 -387 19 -186 4 -339 9 -342 12 -3 3 -10 56 -16
119 -20 226 -42 303 -116 406 -86 122 -199 202 -321 230 -92 21 -689 32 -818
15 -239 -32 -412 -180 -485 -416 -31 -98 -39 -353 -39 -1227 l-1 -708 -1170 0
-1170 0 0 713 c-1 872 -9 1123 -40 1222 -72 230 -246 382 -473 414 -89 12
-669 13 -763 1z m756 -406 c25 -12 57 -35 72 -52 25 -30 26 -37 34 -209 4 -98
8 -1222 8 -2498 1 -2703 3 -2635 -85 -2680 -79 -41 -705 -43 -800 -2 -43 18
-55 46 -71 165 -13 102 -22 4667 -10 4962 10 239 16 262 75 299 55 34 126 40
437 37 274 -2 298 -3 340 -22z m4126 -1 c62 -33 91 -73 101 -140 4 -32 8
-1172 8 -2533 0 -2552 -1 -2634 -39 -2724 -12 -29 -23 -37 -66 -50 -71 -21
-443 -32 -613 -18 -147 12 -191 29 -222 82 -20 35 -20 45 -23 2360 -1 1279 1
2464 6 2633 11 343 10 339 83 382 52 30 93 33 419 32 294 -2 307 -3 346 -24z
m-5386 -2718 l0 -1965 -272 0 c-382 0 -438 12 -480 99 -21 44 -22 57 -30 701
-5 360 -8 1173 -6 1805 l4 1150 21 41 c25 47 93 111 125 119 31 7 148 11 416
13 l222 2 0 -1965z m6393 1955 c219 -13 243 -27 268 -160 15 -82 32 -1935 25
-2815 -6 -848 -3 -811 -77 -898 l-41 -47 -334 0 -334 0 0 1965 0 1965 168 0
c92 0 238 -5 325 -10z m-7563 -1957 l0 -396 -137 6 c-75 4 -165 7 -200 7 l-63
0 0 380 0 380 23 5 c45 10 85 12 230 14 l147 1 0 -397z m5290 2 l0 -395 -1170
0 -1170 0 0 395 0 395 1170 0 1170 0 0 -395z m3278 385 l72 0 0 -385 0 -385
-63 0 c-35 0 -125 -3 -200 -7 l-137 -6 0 398 0 398 128 -6 c70 -4 160 -7 200
-7z"/>
</g>
</svg>
